<svg width="14" height="10" viewBox="0 0 14 10" fill="none" xmlns="http://www.w3.org/2000/svg">
<path d="M5.44871 9.27945C5.31744 9.27972 5.18742 9.25406 5.06609 9.20396C4.94477 9.15385 4.83453 9.08027 4.74171 8.98745L0.499711 4.74445C0.404138 4.65227 0.327879 4.54198 0.275386 4.42002C0.222892 4.29805 0.195215 4.16685 0.193968 4.03407C0.192721 3.9013 0.21793 3.7696 0.268124 3.64667C0.318318 3.52374 0.392492 3.41204 0.486317 3.31808C0.580143 3.22412 0.691741 3.14979 0.8146 3.09942C0.93746 3.04905 1.06912 3.02366 1.2019 3.02472C1.33468 3.02578 1.46592 3.05327 1.58796 3.10559C1.71 3.15791 1.8204 3.23401 1.91271 3.32945L5.44771 6.86445L11.8127 0.501455C12.0002 0.313814 12.2546 0.208346 12.5199 0.208252C12.7851 0.208158 13.0396 0.313447 13.2272 0.500955C13.4149 0.688463 13.5203 0.942831 13.5204 1.2081C13.5205 1.47337 13.4152 1.72781 13.2277 1.91545L6.15571 8.98745C6.06289 9.08027 5.95265 9.15385 5.83133 9.20396C5.71 9.25406 5.57998 9.27972 5.44871 9.27945Z" fill="#2FAB73"/>
</svg>
